Coordinates
version=1
nRows=11
nColumns=36
inDegrees=yes

Units are S.I. units (second, meters, Newtons, ...)
If the header above contains a line with 'inDegrees', this indicates whether rotational values are in degrees (yes) or radians (no).

endheader
time	pelvis_tilt	pelvis_list	pelvis_rotation	pelvis_tx	pelvis_ty	pelvis_tz	hip_flexion_r	hip_adduction_r	hip_rotation_r	knee_angle_r	knee_angle_r_beta	ankle_angle_r	subtalar_angle_r	mtp_angle_r	hip_flexion_l	hip_adduction_l	hip_rotation_l	knee_angle_l	knee_angle_l_beta	ankle_angle_l	subtalar_angle_l	mtp_angle_l	lumbar_extension	lumbar_bending	lumbar_rotation	arm_flex_r	arm_add_r	arm_rot_r	elbow_flex_r	pro_sup_r	arm_flex_l	arm_add_l	arm_rot_l	elbow_flex_l	pro_sup_l
      0.00000000	     -7.68725691	     -3.59621275	      3.44767594	      0.78399897	      0.89046377	      0.02633995	      8.32647465	     -5.42719947	     -6.63395265	      3.58228510	      0.06252267	      5.35669160	     -8.89408378	     -6.50805608	      7.58349016	    -12.79501415	     -2.09339660	      3.60338280	      0.06289089	      6.93146920	     -6.35136361	     -6.50805608	      6.98596430	      4.07917111	     -2.33995600	     27.11844005	      5.25768826	     64.26497835	    118.38393853	     88.42358257	     34.06444190	      5.61486897	     67.67020808	    113.55624869	     95.15152136
      0.01666670	     -7.98049228	     -2.59618436	      1.80072859	      0.78505952	      0.88790996	      0.02758187	      9.74134583	     -6.60716220	     -6.68958943	      4.82948125	      0.08429035	      6.39671271	     -8.21923843	     -6.72089752	      7.88866690	    -12.12556616	     -5.02787108	      4.92402762	      0.08594049	      6.03950198	     -7.64477071	     -6.72089752	      7.53310198	      4.04175179	     -1.53421559	     31.36047767	      4.27800587	     73.72614209	    120.54995341	     99.39341064	     35.11363475	      3.48324530	     66.63479157	    118.74333446	    107.12159579
      0.03333330	     -7.43909989	     -2.48659949	      2.02922387	      0.78397679	      0.88953004	      0.02732773	      9.95481136	     -6.95782089	     -7.04123660	      6.18404494	      0.10793195	      6.70486054	     -8.27866937	     -6.85544057	      8.31188944	    -12.13357669	     -6.08969984	      6.81753395	      0.11898841	      5.60017639	     -9.21479410	     -6.85544057	      6.63332222	      3.90068986	     -2.09570649	     31.63158895	      5.77259047	     73.61804544	    121.01670562	    100.43231200	     36.69184415	      2.41754341	     68.25177290	    119.66239862	    108.33511251
      0.05000000	     -7.12214054	     -2.43391329	      2.69624464	      0.78228344	      0.89400108	      0.02635922	      9.93998720	     -7.37075803	     -8.32229994	      6.86552130	      0.11982595	      6.73049529	     -7.28374422	     -6.98383054	      8.99669692	    -12.16153651	     -6.88569988	      8.25044933	      0.14399751	      5.75768481	     -9.24677778	     -6.98383054	      5.86302737	      3.87702603	     -2.56903991	     31.54671791	      6.70634953	     73.52662856	    120.41269192	    106.07438745	     37.51215507	      1.81908302	     68.74388303	    120.39905064	    111.96662800
      0.06666670	     -6.80506545	     -2.31607896	      2.74683350	      0.78197696	      0.89406521	      0.02636608	      9.82787820	     -7.61952248	     -8.95849386	      7.24263116	      0.12640776	      6.62311187	     -6.91113033	     -7.07847608	      9.00927211	    -12.13745044	     -7.03393939	      9.05717269	      0.15807748	      5.71819057	     -9.60108072	     -7.07847608	      5.16256681	      3.86294954	     -2.45946467	     31.58256548	      7.27666061	     73.64138732	    119.75452876	    106.02941541	     38.17288368	      1.98560050	     68.62978506	    120.28907840	    112.03813896
      0.08333330	     -6.72980386	     -2.12904827	      2.82815187	      0.78626297	      0.89244376	      0.02295156	      9.70749140	     -8.00928882	     -9.27634815	      7.34966698	      0.12827589	      6.32292384	     -6.92383563	     -7.08083391	      9.04634686	    -11.96425554	     -7.20838485	      9.48550768	      0.16555334	      5.65525758	     -9.65454631	     -7.08083391	      5.04359575	      3.80189058	     -2.43668257	     31.28898538	      7.56642897	     73.86171752	    119.52141039	    106.07456096	     38.54151422	      2.16656282	     68.59622134	    120.35316142	    112.01122421
      0.10000000	     -6.53648721	     -2.04841339	      3.18191264	      0.78620963	      0.89512310	      0.02285896	      9.25643509	     -8.24215875	     -9.72131635	      7.20360383	      0.12572660	      5.95061606	     -7.22912380	     -7.17889029	      8.96656515	    -11.86946657	     -7.00755555	      9.74569303	      0.17009443	      5.67862716	     -9.67319093	     -7.17889029	      4.76490342	      3.81077509	     -2.70840257	     31.09311212	      7.73337981	     74.30622991	    119.06006901	    105.57327628	     38.92070797	      2.10345886	     68.69828328	    120.48704562	    111.93327371
      0.11666670	     -6.37853060	     -1.92229383	      3.38096551	      0.78555138	      0.89507525	      0.02276152	      8.77674139	     -8.43446676	     -9.73806688	      6.97651738	      0.12176320	      5.60490911	     -7.84465279	     -7.25048408	      8.80207067	    -11.72163447	     -6.97338430	      9.80373388	      0.17110744	      5.67262219	     -9.53079137	     -7.25048408	      4.62372319	      3.74710904	     -2.73533701	     30.95962330	      7.73973454	     74.45918299	    118.80519964	    104.98050369	     39.27908039	      2.15720857	     68.95807921	    120.61473433	    111.77815752
      0.13333330	     -6.30996696	     -1.85453597	      3.61177328	      0.78503912	      0.89237530	      0.02239031	      8.42638205	     -8.54189454	     -9.94844862	      6.67430923	      0.11648867	      5.37506876	     -8.31061873	     -7.27695392	      8.70651380	    -11.59580030	     -6.87960190	      9.67559229	      0.16887094	      5.50765442	     -9.55345175	     -7.27695392	      4.59535872	      3.69182943	     -2.68599288	     30.84740034	      7.76486781	     74.27817107	    118.71458575	    105.71326749	     39.63616433	      2.43432163	     69.26853636	    120.63299000	    111.16140132
      0.15000000	     -6.21876757	     -1.79960435	      3.81671250	      0.78476227	      0.89213176	      0.02223101	      8.00494780	     -8.60117326	    -10.08926850	      6.30888547	      0.11011082	      5.20213780	     -8.75986995	     -7.31232525	      8.59516504	    -11.48269843	     -6.78133531	      9.54197358	      0.16653886	      5.39969374	     -9.53194966	     -7.31232525	      4.50615618	      3.60384319	     -2.74028488	     31.00724394	      7.71222976	     73.70273352	    118.83553372	    104.83138094	     39.94819556	      2.52266118	     69.56908833	    120.66536264	    110.99740438
      0.16666670	     -6.15862465	     -1.78130597	      4.05470748	      0.78474632	      0.89214538	      0.02205098	      7.67450686	     -8.61696137	    -10.20509410	      5.98980220	      0.10454177	      5.07518904	     -9.25403925	     -7.35748351	      8.55294597	    -11.39806677	     -6.60753906	      9.41928050	      0.16439746	      5.29824184	     -9.56005285	     -7.35748351	      4.43769653	      3.53654961	     -2.82015408	     31.06811294	      7.62666045	     73.09292527	    118.97617046	    104.17044313	     40.11323823	      2.57545707	     69.80993085	    120.60935760	    111.03117204
